<svg xmlns="http://www.w3.org/2000/svg" xmlns:xlink="http://www.w3.org/1999/xlink" preserveAspectRatio="xMidYMid" width="22.5" height="22.516" viewBox="0 0 45 45.031">
  <defs>
    <style>
      .cls-1 {
        fill: #1346eb;
        fill-rule: evenodd;
      }
    </style>
  </defs>
  <path d="M42.202,0.014 L2.822,0.014 C1.284,0.014 0.009,1.289 0.009,2.827 L0.009,42.207 C0.009,43.746 1.284,45.020 2.822,45.020 L24.072,45.020 L24.072,27.528 L18.447,27.528 L18.447,21.045 L24.072,21.045 L24.072,15.441 C24.072,10.321 27.193,6.892 33.368,6.892 C36.093,6.892 37.983,7.200 37.983,7.200 L37.983,13.046 L33.764,13.046 C31.896,13.046 30.951,14.100 30.951,15.946 L30.951,21.045 L37.522,21.045 L36.577,27.528 L30.951,27.528 L30.951,45.020 L42.202,45.020 C43.741,45.020 45.015,43.746 45.015,42.207 L45.015,2.827 C45.015,1.289 43.741,0.014 42.202,0.014 Z" class="cls-1"/>
</svg>
