<svg xmlns="http://www.w3.org/2000/svg" xmlns:xlink="http://www.w3.org/1999/xlink" preserveAspectRatio="xMidYMid" width="26.015" height="40.78" viewBox="0 0 52.03 81.56">
  <defs>
    <style>
      .cls-1 {
        fill: #fff;
        fill-rule: evenodd;
      }
    </style>
  </defs>
  <path d="M29.525,56.246 L29.525,35.198 L37.434,27.288 L32.469,22.323 L26.009,28.782 L19.550,22.323 L14.584,27.288 L22.494,35.198 L22.494,56.246 L29.525,56.246 ZM46.222,7.690 C43.015,4.175 36.907,0.000 26.009,0.000 C15.112,0.000 9.004,4.175 5.796,7.690 C1.622,12.304 -0.531,18.939 0.084,25.487 C0.831,33.396 3.511,37.395 6.675,41.437 L7.202,42.140 C8.696,44.030 9.839,45.524 9.839,48.688 L9.839,56.246 L16.869,56.246 L16.869,48.688 C16.869,43.063 14.453,39.987 12.651,37.746 L12.212,37.131 C9.575,33.748 7.686,30.891 7.114,24.827 C6.939,23.070 6.763,17.138 11.025,12.436 C14.277,8.833 19.330,7.031 26.009,7.031 C32.732,7.031 37.742,8.833 41.037,12.436 C45.300,17.094 45.080,23.070 44.904,24.827 C44.377,30.891 42.443,33.748 39.807,37.131 L39.411,37.614 C37.610,39.899 35.149,42.975 35.149,48.688 L35.149,56.246 L42.180,56.246 L42.180,48.688 C42.180,45.436 43.366,43.942 44.904,42.009 L45.344,41.437 C48.507,37.395 51.188,33.396 51.935,25.487 C52.550,18.939 50.397,12.304 46.222,7.690 ZM9.839,68.901 L42.180,68.901 L42.180,61.870 L9.839,61.870 L9.839,68.901 ZM16.869,81.556 L35.149,81.556 L35.149,74.525 L16.869,74.525 L16.869,81.556 Z" class="cls-1"/>
</svg>
