<svg xmlns="http://www.w3.org/2000/svg" width="26" height="29" viewBox="0 0 26 29">
  <defs>
    <style>
      .cls-1 {
        fill: #fff;
        fill-rule: evenodd;
      }
    </style>
  </defs>
  <path id="like" class="cls-1" d="M267.154,2543.06a5.781,5.781,0,0,0,.847-2.91c0-2.56-1.746-4.08-4.564-4.08h-3.043c-0.76,0-1.676-.33-1.728-1.08a4.408,4.408,0,0,1,.657-2.45,5.746,5.746,0,0,0,.916-3.04,3.538,3.538,0,0,0-1.867-2.99,4.127,4.127,0,0,0-4.08.07c-1.227.69-3.838,3.9-4.616,4.86l-0.155.22c-2.23,2.79-4.166,5.22-7.52,5.53v2.79c4.667-.3,7.209-3.49,9.663-6.57l0.173-.21a28.176,28.176,0,0,1,3.8-4.18,1.387,1.387,0,0,1,1.4-.07,0.813,0.813,0,0,1,.449.73,3.721,3.721,0,0,1-.605,1.55,7.137,7.137,0,0,0-.985,4.01c0.173,2.09,2.022,3.55,4.494,3.55h3.043c1.8,0,1.8.89,1.8,1.36a3.164,3.164,0,0,1-.5,1.57,5.558,5.558,0,0,0-.553,3.19,4.074,4.074,0,0,1-.138,1.71,3.721,3.721,0,0,1-.9,1.23,12.491,12.491,0,0,0-.9,1.12,5.463,5.463,0,0,0-.588,1.27,2.045,2.045,0,0,1-1.3,1.45,7.563,7.563,0,0,1-2.956.5,11.589,11.589,0,0,1-5.947-1.65c-2-1.19-5.843-1.13-8.938-1.1H242v2.75h0.536c2.454-.01,6.171-0.03,7.52.77a14.421,14.421,0,0,0,7.312,2.04h0.173a10.279,10.279,0,0,0,4.011-.78,4.7,4.7,0,0,0,2.7-3.02,2.871,2.871,0,0,1,.294-0.66,5.623,5.623,0,0,1,.657-0.82,5.846,5.846,0,0,0,1.4-2.32,6.942,6.942,0,0,0,.242-2.75,2.5,2.5,0,0,1,.017-0.96A3.242,3.242,0,0,1,267.154,2543.06Z" transform="translate(-242 -2526)"/>
</svg>
