<svg xmlns="http://www.w3.org/2000/svg" width="195" height="30" viewBox="0 0 195 30">
  <defs>
    <style>
      .cls-1 {
        fill: #444;
        fill-rule: evenodd;
      }
    </style>
  </defs>
  <path id="Logo" class="cls-1" d="M1101.21,234.981c-4.12,0-6.7-2.081-6.7-6.592v-8.1h4.07v8.013c0,2.081,1.06,3.07,2.67,3.07s2.67-.948,2.67-2.967v-8.116H1108v7.993C1108,232.941,1105.33,234.981,1101.21,234.981Zm-16.75-.268h-5.5v-14.42h5.59c5.17,0,8.17,2.966,8.17,7.169C1092.72,231.623,1089.68,234.713,1084.46,234.713Zm0.15-10.918h-1.64v7.375h1.64c2.4,0,3.99-1.319,3.99-3.688C1088.6,225.175,1087.01,223.8,1084.61,223.8ZM1069.16,235a7.5,7.5,0,1,1,7.82-7.5A7.51,7.51,0,0,1,1069.16,235Zm0-11.391a3.7,3.7,0,0,0-3.67,3.893,3.757,3.757,0,0,0,3.71,3.893,3.7,3.7,0,0,0,3.68-3.893A3.753,3.753,0,0,0,1069.16,223.61Zm-7.44,11.1h-4.82l-3.64-5.356-1.47,1.627v3.729h-4.01v-14.42h4.01v5.85l4.99-5.85h4.76l-5.49,6.2Zm-26.36-14.42h4.04v14.42h-4.04v-14.42Zm-5.75,14.42h-4.02V223.8h-4.34v-3.5h12.7v3.5h-4.34v10.918Zm-9.23-4.45c0,2.946-2.34,4.7-5.86,4.7a10.147,10.147,0,0,1-6.79-2.389l2.24-2.658a7.48,7.48,0,0,0,4.69,1.731c1.08,0,1.66-.371,1.66-1.03,0-.6-0.48-0.927-2.44-1.381-3.08-.7-5.46-1.565-5.46-4.573,0-2.678,2.13-4.614,5.6-4.614a9.124,9.124,0,0,1,5.96,1.916l-2,2.822a7.321,7.321,0,0,0-4.06-1.422c-0.97,0-1.45.412-1.45,0.969,0,0.659.5,0.947,2.51,1.4C1018.31,226.452,1020.38,227.524,1020.38,230.263Zm-25.465-9.97h11.645v3.4h-7.672v2.184h6.952v3.151h-6.952v2.287h7.782v3.4H994.915v-14.42Zm-14.035,0h11.65v3.4h-7.677v2.184h6.953v3.151h-6.953v2.287h7.781v3.4H980.88v-14.42Zm-21.348,5.745V241H918.785V226.038l-3.678,1.4L913,222.112l26.106-9.947,0.013-.035,0.039,0.015,0.038-.015,0.014,0.035,8.682,3.308V211h5.813v6.688l11.611,4.424-2.107,5.327Zm-5.827-2.22-14.547-5.543-14.574,5.553v11.463h11.668v-8.577h5.813v8.577h11.64V223.818Z" transform="translate(-913 -211)"/>
</svg>
