<svg xmlns="http://www.w3.org/2000/svg" xmlns:xlink="http://www.w3.org/1999/xlink" preserveAspectRatio="xMidYMid" width="30.281" height="33.095" viewBox="0 0 60.562 66.19">
  <defs>
    <style>
      .cls-1 {
        fill: #fff;
        fill-rule: evenodd;
      }
    </style>
  </defs>
  <path d="M21.189,38.628 C21.189,40.807 22.946,42.565 25.126,42.565 C27.306,42.565 29.064,40.807 29.064,38.628 C29.064,36.448 27.306,34.690 25.126,34.690 C22.946,34.690 21.189,36.448 21.189,38.628 ZM35.814,38.628 C35.814,40.807 37.571,42.565 39.751,42.565 C41.931,42.565 43.689,40.807 43.689,38.628 C43.689,36.448 41.931,34.690 39.751,34.690 C37.571,34.690 35.814,36.448 35.814,38.628 ZM58.243,29.276 C58.876,27.026 62.040,14.475 54.517,7.374 C49.067,2.170 42.212,3.014 39.540,3.752 C36.446,2.241 27.728,-1.873 19.325,1.010 C10.079,4.174 6.282,12.788 4.982,16.585 C6.282,17.534 8.040,18.624 9.974,19.502 C10.325,18.167 13.032,9.096 21.153,6.319 C28.888,3.682 37.782,9.167 37.888,9.202 L39.083,9.870 L40.349,9.377 C40.560,9.272 46.290,7.303 50.650,11.417 C53.989,14.616 54.095,19.573 53.638,23.440 C53.321,26.147 52.794,28.819 51.985,31.420 C53.814,32.088 55.044,33.987 54.974,36.202 C54.939,37.784 54.271,39.295 53.181,40.350 C52.583,40.878 51.388,41.545 50.087,41.545 L49.806,41.545 C47.872,52.092 40.278,60.495 32.439,60.495 C24.634,60.495 17.005,52.092 15.071,41.545 L14.825,41.545 C13.489,41.545 12.294,40.878 11.696,40.350 C10.607,39.295 9.939,37.784 9.903,36.202 C9.833,33.600 11.521,31.420 13.876,31.139 C14.403,31.104 14.931,31.210 15.423,31.245 C15.985,31.280 16.548,31.315 17.110,31.315 C18.622,31.315 20.204,31.174 21.786,30.823 C29.591,29.065 36.025,24.319 39.153,21.647 L47.802,29.698 C47.837,29.487 47.907,29.311 47.942,29.135 C48.610,26.745 48.927,24.635 49.067,23.194 L39.118,13.913 L37.185,15.846 C37.114,15.917 29.732,23.299 20.591,25.338 C11.872,27.237 3.470,20.979 3.400,20.909 L-0.011,25.409 C0.200,25.549 2.802,27.518 6.739,29.135 C5.157,31.069 4.243,33.600 4.314,36.377 C4.419,39.471 5.720,42.424 7.935,44.463 C8.638,45.096 9.411,45.659 10.220,46.081 C13.595,57.682 22.700,66.190 32.439,66.190 C42.177,66.190 51.282,57.682 54.657,46.081 C55.501,45.659 56.239,45.096 56.942,44.463 C59.157,42.424 60.458,39.471 60.564,36.377 C60.634,33.670 59.755,31.174 58.243,29.276 Z" class="cls-1"/>
</svg>
