<svg xmlns="http://www.w3.org/2000/svg" width="35" height="21" viewBox="0 0 35 21">
  <defs>
    <style>
      .cls-1 {
        fill: #fff;
        fill-rule: evenodd;
      }
    </style>
  </defs>
  <path id="usergroup" class="cls-1" d="M1240.79,1707.62c0.06-.67.41-2.76,4.48-2.76,0.07,0,.12.01,0.18,0.01a7.378,7.378,0,0,1,1.13-2.73,11.14,11.14,0,0,0-1.31-.07c-4.21,0-6.79,1.94-7.09,5.32L1238,1710h2.62Zm32.02-.25c-0.3-3.36-2.88-5.3-7.09-5.3a10.571,10.571,0,0,0-1.29.07,7.349,7.349,0,0,1,1.11,2.73c0.07,0,.12-0.01.18-0.01,4.07,0,4.42,2.09,4.47,2.75l0.18,2.39H1273Zm-22.82-1.2c0.2-2.01,2.16-3.02,5.5-3.02s5.31,1.01,5.5,3l0.32,3.85h2.64l-0.32-4.04c-0.35-3.55-3.31-5.59-8.14-5.59s-7.78,2.04-8.13,5.6l-0.32,4.03h2.63Zm-5.25-5.25c2.58,0,4.53-2.22,4.53-5.18a4.53,4.53,0,0,0-9.06,0C1240.21,1698.7,1242.16,1700.92,1244.74,1700.92Zm0-6.92a1.635,1.635,0,0,1,1.78,1.72c0,1.42-.74,2.47-1.78,2.47s-1.79-1.05-1.79-2.47A1.638,1.638,0,0,1,1244.74,1694Zm20.94,6.92c2.58,0,4.53-2.22,4.53-5.18a4.408,4.408,0,0,0-4.53-4.47,4.355,4.355,0,0,0-4.53,4.47C1261.15,1698.7,1263.1,1700.92,1265.68,1700.92Zm-0.02-6.92a1.6,1.6,0,0,1,1.79,1.72c0,1.42-.76,2.47-1.79,2.47s-1.78-1.05-1.78-2.47A1.635,1.635,0,0,1,1265.66,1694Zm-10.45,5.22c2.74,0,4.81-2.36,4.81-5.48a4.811,4.811,0,0,0-9.62,0C1250.4,1696.86,1252.47,1699.22,1255.21,1699.22Zm0-7.49a2,2,0,0,1,2.09,1.99c0,1.59-.89,2.76-2.09,2.76s-2.09-1.17-2.09-2.76A2,2,0,0,1,1255.21,1691.73Z" transform="translate(-1238 -1689)"/>
</svg>
